<?xml version="1.0" encoding="UTF-8"?>
<svg version="1.1" xmlns="http://www.w3.org/2000/svg" width="115" height="115">
<path d="M0 0 C37.62 0 75.24 0 114 0 C114 37.62 114 75.24 114 114 C76.38 114 38.76 114 0 114 C-0.185625 102.98625 -0.37125 91.9725 -0.5625 80.625 C-0.65446655 75.56019287 -0.65446655 75.56019287 -0.74829102 70.39306641 C-1.10827004 46.85245677 -0.5616098 23.58761146 0 0 Z " fill="#706162" transform="translate(1,1)"/>
<path d="M0 0 C1.68381973 2.20802776 2.12161145 4.31603498 3 7 C2.19175781 7.36351562 1.38351563 7.72703125 0.55078125 8.1015625 C-8.5155812 12.36679936 -12.80985353 15.73757096 -17 25 C-16.11248047 25.07347656 -16.11248047 25.07347656 -15.20703125 25.1484375 C-4.87387387 26.12612613 -4.87387387 26.12612613 -1 30 C-1.54347826 36.08695652 -1.54347826 36.08695652 -3 39 C-2.91161539 41.37783105 -2.75653579 43.75345146 -2.5625 46.125 C-2.46066406 47.40632813 -2.35882812 48.68765625 -2.25390625 50.0078125 C-2.12822266 51.48894531 -2.12822266 51.48894531 -2 53 C1.81388316 51.32063581 2.92083259 49.59128916 5 46 C5.66 46 6.32 46 7 46 C7.33 45.34 7.66 44.68 8 44 C9.32 44.99 10.64 45.98 12 47 C11.34 47.598125 10.68 48.19625 10 48.8125 C7.6626154 50.87501834 7.6626154 50.87501834 8 54 C14.43459429 52.84890979 20.80767707 51.13885164 25.5625 46.5 C26.84884417 44.2628797 27.62377273 42.53953408 28 40 C28.66 40 29.32 40 30 40 C34.41964286 46.42857143 34.41964286 46.42857143 33.6875 51 C33.55859375 51.6703125 33.4296875 52.340625 33.296875 53.03125 C32.83433693 56.09860771 33.51077534 58.95593545 34 62 C34 64.66666667 34 67.33333333 34 70 C34.27743334 75.05938834 34.27743334 75.05938834 37 79 C37.4140625 81.1640625 37.4140625 81.1640625 37.625 83.625 C37.69976562 84.44226563 37.77453125 85.25953125 37.8515625 86.1015625 C37.90054688 86.72804688 37.94953125 87.35453125 38 88 C43.05210345 81.66156762 43.85357263 75.98694743 44 68 C46.97 68 49.94 68 53 68 C57.93248843 76.27953415 58.58850539 82.7511479 61 93 C34.6 93 8.2 93 -19 93 C-19.185625 81.470625 -19.37125 69.94125 -19.5625 58.0625 C-19.62381104 54.45836182 -19.68512207 50.85422363 -19.74829102 47.14086914 C-19.81628418 42.64733887 -19.81628418 42.64733887 -19.8467865 40.52586365 C-19.86868778 39.08324048 -19.89299914 37.64065236 -19.91941833 36.19810486 C-20.1144073 25.41482477 -19.77222325 14.75770659 -19 4 C-5.30813397 -1.72822967 -5.30813397 -1.72822967 0 0 Z " fill="#FDFDFD" transform="translate(20,22)"/>
<path d="M0 0 C37.62 0 75.24 0 114 0 C114 2.97 114 5.94 114 9 C113.31035156 8.97679687 112.62070313 8.95359375 111.91015625 8.9296875 C102.97211355 8.75803785 96.19968653 8.72292319 89.25 14.8125 C87.82277153 16.19753215 86.4049186 17.59234277 85 19 C84.071875 19.804375 83.14375 20.60875 82.1875 21.4375 C79.67426641 24.38157364 78.34559908 27.25357163 76.89453125 30.81640625 C74.95443755 35.55226816 73.19737523 37.9071972 69 41 C60.41165919 34.89955157 60.41165919 34.89955157 59.40234375 30.2421875 C59.43401538 27.77180015 59.59569259 25.43582736 60 23 C57.57570994 22.83316274 57.57570994 22.83316274 55 23 C53.15684329 24.9004467 53.15684329 24.9004467 52 27 C49.75 26.875 49.75 26.875 47 26 C42.70987273 20.79984573 40.11985889 14.35957666 38 8 C37.34 8 36.68 8 36 8 C36 11.3 36 14.6 36 18 C32.93488998 17.56212714 30.15757612 17.05811318 27.24609375 15.984375 C19.69918446 13.69578157 10.80193352 13.75949166 3.5625 17 C2.386875 17.66 1.21125 18.32 0 19 C0 12.73 0 6.46 0 0 Z " fill="#FDFCFD" transform="translate(1,1)"/>
<path d="M0 0 C0.66 0 1.32 0 2 0 C4.84328648 4.84411771 7.2973921 9.71845658 9.55859375 14.86328125 C11.36147964 17.53585193 12.96506875 18.08293396 16 19 C16.309375 18.360625 16.61875 17.72125 16.9375 17.0625 C18 15 18 15 19 14 C21.5 13.875 21.5 13.875 24 14 C24.495 14.495 24.495 14.495 25 15 C24.83397544 16.52090356 24.66716951 18.04172186 24.5 19.5625 C24.41588586 23.21620794 24.65141884 24.57448589 27 27.44140625 C29.26395999 29.4188338 31.54999639 31.25971966 34 33 C33.30078125 35.38671875 33.30078125 35.38671875 32 38 C29.79296875 39.14453125 29.79296875 39.14453125 27.1875 39.8125 C25.90939453 40.16248047 25.90939453 40.16248047 24.60546875 40.51953125 C22.00630715 40.99883691 19.63628207 41.08992704 17 41 C15.68 43.31 14.36 45.62 13 48 C12.34 48 11.68 48 11 48 C11 48.66 11 49.32 11 50 C10.030625 49.979375 9.06125 49.95875 8.0625 49.9375 C5.12534105 49.64381501 5.12534105 49.64381501 4 51 C1.32941149 51.14115161 -1.32432238 51.04247107 -4 51 C-4.33 46.05 -4.66 41.1 -5 36 C-9.43758733 40.35473011 -9.43758733 40.35473011 -8.6875 44.1875 C-8.3471875 45.5796875 -8.3471875 45.5796875 -8 47 C-8.33 47.66 -8.66 48.32 -9 49 C-8.401875 49.2475 -7.80375 49.495 -7.1875 49.75 C-4.71352479 51.16370012 -3.56629745 52.65055383 -2 55 C-2.495 55.99 -2.495 55.99 -3 57 C-9.30267439 56.63223832 -14.33251843 55.83374078 -20 53 C-20 50 -20 50 -19.375 46.4375 C-19.25125 45.303125 -19.1275 44.16875 -19 43 C-21.67550292 40.32449708 -23.94879894 40.16790611 -27.625 39.375 C-28.81351563 39.11460938 -30.00203125 38.85421875 -31.2265625 38.5859375 C-32.14179687 38.39257812 -33.05703125 38.19921875 -34 38 C-32.22217415 31.99983777 -29.76528203 28.06475963 -25 24 C-21.76005512 22.31164445 -18.4903447 21.06746961 -15 20 C-15.66 18.02 -16.32 16.04 -17 14 C-22.56684948 12.1945353 -26.43366086 14.00400267 -31.609375 16.08984375 C-34 17 -34 17 -36 17 C-36.375 14.25 -36.375 14.25 -36 11 C-29.24364563 5.44477529 -22.36930808 5.40326058 -13.9921875 5.79443359 C-9.08680037 6.30060222 -4.52013475 8.11450618 0 10 C0 6.7 0 3.4 0 0 Z " fill="#815679" transform="translate(37,9)"/>
<path d="M0 0 C0 23.43 0 46.86 0 71 C-8.25 71 -16.5 71 -25 71 C-23 65 -23 65 -21.39111328 62.55688477 C-19.58100817 59.22988743 -19.67310227 56.86154426 -19.7421875 53.08984375 C-19.75636719 51.77048828 -19.77054688 50.45113281 -19.78515625 49.09179688 C-19.81427514 47.70701357 -19.84423143 46.32224763 -19.875 44.9375 C-19.92132262 42.21747386 -19.9576027 39.49757144 -19.9921875 36.77734375 C-20.01651855 35.57327881 -20.04084961 34.36921387 -20.06591797 33.12866211 C-20 30 -20 30 -19.44702148 27.79052734 C-18.6563242 24.62341983 -20.1328941 21.67181031 -21.1875 18.6875 C-21.41655029 18.01904053 -21.64560059 17.35058105 -21.8815918 16.66186523 C-23.49449202 12.08704286 -25.33823407 8.04194086 -28 4 C-26.43840941 3.51787786 -24.87568072 3.03944127 -23.3125 2.5625 C-22.00732422 2.16224609 -22.00732422 2.16224609 -20.67578125 1.75390625 C-13.25818259 -0.33601571 -8.34433515 0 0 0 Z " fill="#FCFCFC" transform="translate(115,44)"/>
<path d="M0 0 C3.19859819 -0.09288125 5.72948045 0.10904557 8.77734375 1.125 C8.77734375 12.345 8.77734375 23.565 8.77734375 35.125 C6.01359375 35.393125 3.24984375 35.66125 0.40234375 35.9375 C-7.08994522 36.72247069 -14.40502859 37.71618617 -21.22265625 41.125 C-30.45199858 34.94287521 -30.45199858 34.94287521 -32.22265625 29.125 C-31.421875 27.29296875 -31.421875 27.29296875 -30.22265625 25.125 C-29.87589844 24.25746094 -29.52914062 23.38992187 -29.171875 22.49609375 C-25.09584305 13.01900398 -18.2576016 5.22423659 -8.66015625 0.99609375 C-5.74591115 0.27259193 -2.98407044 0.16782118 0 0 Z " fill="#605C5A" transform="translate(106.22265625,8.875)"/>
<path d="M0 0 C0.99 0.33 1.98 0.66 3 1 C1.79774252 6.10959431 0.41596233 8.92288367 -3 13 C-4.1735237 16.06921583 -4.07723233 16.768303 -3 20 C1.21912747 19.5205537 3.79663178 18.83374881 7 16 C8.30245593 18.14522154 9.01434368 19.52665842 8.9375 22.0625 C8 24 8 24 5.6875 25.1875 C1.71062707 27.86957709 0.64605313 31.61359026 -1 36 C-2.36125 35.7215625 -2.36125 35.7215625 -3.75 35.4375 C-6.8437466 34.81366385 -6.8437466 34.81366385 -9.1875 35.5625 C-9.785625 35.706875 -10.38375 35.85125 -11 36 C-11.99 35.34 -12.98 34.68 -14 34 C-13.33735914 40.06264222 -13.33735914 40.06264222 -12 46 C-13.65 46 -15.3 46 -17 46 C-19.54038951 41.90048732 -21.45836716 38.71177356 -20.5625 33.8125 C-19.92415006 29.48590596 -20.48873937 28.41531446 -23 25 C-23 24.34 -23 23.68 -23 23 C-23.66 23 -24.32 23 -25 23 C-25.0928125 24.3303125 -25.0928125 24.3303125 -25.1875 25.6875 C-26.24974771 30.01820218 -27.44124884 31.29534912 -31 34 C-40.19929184 38.30663144 -40.19929184 38.30663144 -44.33984375 37.6015625 C-44.88769531 37.40304688 -45.43554688 37.20453125 -46 37 C-45.43628586 33.73045798 -44.50037734 32.17424117 -42 30 C-42.99 29.34 -43.98 28.68 -45 28 C-47.06894935 29.99760627 -48.9185481 31.88270926 -50.5625 34.25 C-51.036875 34.8275 -51.51125 35.405 -52 36 C-52.99 36 -53.98 36 -55 36 C-56.32229189 33.35541621 -56.09677194 31.32238699 -56.0625 28.375 C-56.05347656 27.37210938 -56.04445313 26.36921875 -56.03515625 25.3359375 C-56.02355469 24.56507812 -56.01195313 23.79421875 -56 23 C-55.05125 23.309375 -54.1025 23.61875 -53.125 23.9375 C-48.49061575 25.27928271 -43.79447959 25.63342007 -39 26 C-40.80412643 22.73539027 -41.83394693 21.11070205 -45 19 C-46.76345561 12.38704148 -46.76345561 12.38704148 -44.9765625 9.140625 C-43.625 7.5 -43.625 7.5 -41 5 C-40.67 5 -40.34 5 -40 5 C-40 10.28 -40 15.56 -40 21 C-34.53327547 20.36231246 -34.53327547 20.36231246 -29.125 19.375 C-27 19 -27 19 -25 20 C-25 19.34 -25 18.68 -25 18 C-24.34 17.67 -23.68 17.34 -23 17 C-22.505 16.01 -22.01 15.02 -21.5 14 C-20 11 -20 11 -18 10 C-16.7625 9.855625 -15.525 9.71125 -14.25 9.5625 C-10.58595367 9.11031279 -7.35543958 8.63870305 -4 7 C-2.14083176 4.03292954 -2.14083176 4.03292954 -1 1 C-0.67 0.67 -0.34 0.34 0 0 Z " fill="#583F4E" transform="translate(73,39)"/>
<path d="M0 0 C3 1 3 1 4 3 C4.04022391 5.3329866 4.04320247 7.66706666 4 10 C7.465 9.505 7.465 9.505 11 9 C10.61402985 11.79828356 10.19863427 12.8205884 8.0625 14.75 C6 16 6 16 4 16 C3.855625 16.928125 3.71125 17.85625 3.5625 18.8125 C3 22 3 22 2 25 C0.68 24.67 -0.64 24.34 -2 24 C-2.495 21.525 -2.495 21.525 -3 19 C-3.66 19 -4.32 19 -5 19 C-5.66 18.01 -6.32 17.02 -7 16 C-8.31120653 17.10796961 -8.31120653 17.10796961 -8.375 19.875 C-8.25125 20.90625 -8.1275 21.9375 -8 23 C-5.60943058 24.9354148 -5.60943058 24.9354148 -3 26 C-3.99 26.33 -4.98 26.66 -6 27 C-6 28.32 -6 29.64 -6 31 C-9.96 30.67 -13.92 30.34 -18 30 C-17.87625 31.794375 -17.7525 33.58875 -17.625 35.4375 C-17.58579118 42.04810718 -19.57976281 46.15120796 -24 51 C-24.33 51 -24.66 51 -25 51 C-25.07347656 49.95199219 -25.07347656 49.95199219 -25.1484375 48.8828125 C-25.22320312 47.97273438 -25.29796875 47.06265625 -25.375 46.125 C-25.44460937 45.22007813 -25.51421875 44.31515625 -25.5859375 43.3828125 C-25.79568132 40.82058097 -25.79568132 40.82058097 -28 39 C-29.00838698 33.95806509 -29.25580388 29.11607769 -29 24 C-28.01 22.515 -28.01 22.515 -27 21 C-26.67 21.99 -26.34 22.98 -26 24 C-24.35 24.33 -22.7 24.66 -21 25 C-21.495 23.948125 -21.99 22.89625 -22.5 21.8125 C-23.82779788 18.74547391 -24.30715006 16.37865064 -24 13 C-20.89448334 13 -19.64738916 13.5393715 -17 15 C-16.67 14.34 -16.34 13.68 -16 13 C-14.02 13.66 -12.04 14.32 -10 15 C-9.85304688 14.39671875 -9.70609375 13.7934375 -9.5546875 13.171875 C-8.29766397 8.69282562 -7.65051747 6.50740363 -3.875 3.5625 C-2.451875 2.7890625 -2.451875 2.7890625 -1 2 C-0.67 1.34 -0.34 0.68 0 0 Z " fill="#747990" transform="translate(82,60)"/>
<path d="M0 0 C0 7.59 0 15.18 0 23 C-26.89655172 27.03448276 -26.89655172 27.03448276 -33 25 C-32.52531987 20.72787882 -29.92614175 18.92614175 -27 16 C-27 15.01 -27 14.02 -27 13 C-25.35546875 11.31640625 -25.35546875 11.31640625 -23.1875 9.5625 C-20.07293972 7.03219565 -20.07293972 7.03219565 -17.6796875 3.85546875 C-15.13300403 1.04227189 -12.63232515 1.16265886 -8.9375 0.75 C-7.68839844 0.60046875 -6.43929687 0.4509375 -5.15234375 0.296875 C-2 0 -2 0 0 0 Z " fill="#595453" transform="translate(115,15)"/>
<path d="M0 0 C0.66 0.33 1.32 0.66 2 1 C2.1466932 4.97877103 2.23453512 8.9568359 2.3125 12.9375 C2.35439453 14.05447266 2.39628906 15.17144531 2.43945312 16.32226562 C2.55124619 23.94655234 1.33660227 28.7368162 -3 35 C-3.33 35.66 -3.66 36.32 -4 37 C-6.97 37 -9.94 37 -13 37 C-14.74706415 31.98668549 -16.32220748 27.28678165 -17 22 C-14.36 22 -11.72 22 -9 22 C-9.33 19.69 -9.66 17.38 -10 15 C-9.01 15 -8.02 15 -7 15 C-6.9175 13.88625 -6.835 12.7725 -6.75 11.625 C-6.37875 9.830625 -6.37875 9.830625 -6 8 C-4.0625 6.9375 -4.0625 6.9375 -2 6 C-0.70768358 2.95800528 -0.70768358 2.95800528 0 0 Z " fill="#7683A6" transform="translate(94,78)"/>
<path d="M0 0 C1.68381973 2.20802776 2.12161145 4.31603498 3 7 C2.19175781 7.36351562 1.38351563 7.72703125 0.55078125 8.1015625 C-8.5155812 12.36679936 -12.80985353 15.73757096 -17 25 C-16.11248047 25.07347656 -16.11248047 25.07347656 -15.20703125 25.1484375 C-4.87387387 26.12612613 -4.87387387 26.12612613 -1 30 C-1.125 33.5 -1.125 33.5 -2 37 C-3.9375 38.5 -3.9375 38.5 -6 39 C-6.66 38.67 -7.32 38.34 -8 38 C-8.6328125 35.71484375 -8.6328125 35.71484375 -9.125 32.9375 C-9.37636719 31.55884766 -9.37636719 31.55884766 -9.6328125 30.15234375 C-9.75398437 29.44207031 -9.87515625 28.73179688 -10 28 C-11.27875 27.855625 -12.5575 27.71125 -13.875 27.5625 C-16.25692894 27.29357254 -17.84452691 27.07773654 -20 26 C-19.67 18.74 -19.34 11.48 -19 4 C-5.30813397 -1.72822967 -5.30813397 -1.72822967 0 0 Z " fill="#EFEDEE" transform="translate(20,22)"/>
<path d="M0 0 C2.4375 0.1875 2.4375 0.1875 3.4375 1.1875 C3.27147544 2.70840356 3.10466951 4.22922186 2.9375 5.75 C2.85338586 9.40370794 3.08891884 10.76198589 5.4375 13.62890625 C7.70145999 15.6063338 9.98749639 17.44721966 12.4375 19.1875 C11.73828125 21.57421875 11.73828125 21.57421875 10.4375 24.1875 C8.23046875 25.33203125 8.23046875 25.33203125 5.625 26 C4.77292969 26.23332031 3.92085937 26.46664062 3.04296875 26.70703125 C0.4375 27.1875 0.4375 27.1875 -2.26171875 27.07421875 C-3.02097656 27.11160156 -3.78023437 27.14898437 -4.5625 27.1875 C-5.2225 28.1775 -5.8825 29.1675 -6.5625 30.1875 C-7.5525 29.8575 -8.5425 29.5275 -9.5625 29.1875 C-10.25 27.125 -10.25 27.125 -10.5625 25.1875 C-9.5725 25.1875 -8.5825 25.1875 -7.5625 25.1875 C-7.33569544 20.04635906 -7.33569544 20.04635906 -8.25 15.0625 C-8.76137397 11.99425619 -6.98136897 9.8615223 -5.5625 7.1875 C-5.22189189 5.52230481 -4.88691604 3.85592534 -4.5625 2.1875 C-2.5625 0.1875 -2.5625 0.1875 0 0 Z " fill="#875672" transform="translate(58.5625,22.8125)"/>
<path d="M0 0 C1.32 0 2.64 0 4 0 C3.54636829 1.58468677 3.08688548 3.16769924 2.625 4.75 C2.24214844 6.07257813 2.24214844 6.07257813 1.8515625 7.421875 C0.47198061 11.59859081 -0.26005099 13.50670066 -4 16 C-5.2188121 19.55672179 -5.2188121 19.55672179 -6 23 C-6.99 23 -7.98 23 -9 23 C-8.67 25.31 -8.34 27.62 -8 30 C-10.64 30 -13.28 30 -16 30 C-16.99 27.03 -17.98 24.06 -19 21 C-18.34 21 -17.68 21 -17 21 C-17 19.68 -17 18.36 -17 17 C-16.34 16.67 -15.68 16.34 -15 16 C-15.825 15.62875 -16.65 15.2575 -17.5 14.875 C-18.325 14.25625 -19.15 13.6375 -20 13 C-20.4375 9.9375 -20.4375 9.9375 -20 7 C-19.34 6.34 -18.68 5.68 -18 5 C-17.34 6.32 -16.68 7.64 -16 9 C-15.34 9 -14.68 9 -14 9 C-13.731875 9.804375 -13.46375 10.60875 -13.1875 11.4375 C-12.795625 12.283125 -12.40375 13.12875 -12 14 C-11.01 14.33 -10.02 14.66 -9 15 C-8.92523438 14.39671875 -8.85046875 13.7934375 -8.7734375 13.171875 C-7.68297856 6.54359518 -7.68297856 6.54359518 -3.9375 3.5625 C-2.968125 3.046875 -1.99875 2.53125 -1 2 C-0.67 1.34 -0.34 0.68 0 0 Z " fill="#6B4C6B" transform="translate(93,70)"/>
<path d="M0 0 C2.3125 1.375 2.3125 1.375 4 3 C3.34 5.31 2.68 7.62 2 10 C0.35 10.33 -1.3 10.66 -3 11 C-3 11.33 -3 11.66 -3 12 C-3 13.32 -3 14.64 -3 16 C-0.57327433 17.78969026 -0.57327433 17.78969026 2 19 C1.67 20.32 1.34 21.64 1 23 C1.598125 23.2475 2.19625 23.495 2.8125 23.75 C5.28647521 25.16370012 6.43370255 26.65055383 8 29 C7.67 29.66 7.34 30.32 7 31 C0.69732561 30.63223832 -4.33251843 29.83374078 -10 27 C-10 24 -10 24 -9.375 20.4375 C-9.25125 19.303125 -9.1275 18.16875 -9 17 C-9.66 16.34 -10.32 15.68 -11 15 C-11.38286803 11.26703674 -11.14915785 10.22373677 -9 7 C-9 6.34 -9 5.68 -9 5 C-7.68 4.67 -6.36 4.34 -5 4 C-5 3.34 -5 2.68 -5 2 C-2.75 0.8125 -2.75 0.8125 0 0 Z " fill="#7D7E9F" transform="translate(27,35)"/>
<path d="M0 0 C2.64196907 0.37742415 4.10717222 1.07531021 6.3125 2.625 C9.88563666 4.45311643 12.15704621 3.82887239 16 3 C19 7.75 19 7.75 19 10 C17.33333333 11.66666667 15.66666667 13.33333333 14 15 C13.67 15.99 13.34 16.98 13 18 C10.83125748 17.49396008 9.00032373 17.00016187 7 16 C7.66264086 22.06264222 7.66264086 22.06264222 9 28 C7.35 28 5.7 28 4 28 C1.45961049 23.90048732 -0.45836716 20.71177356 0.4375 15.8125 C1.09532036 11.35393976 0.29820574 10.63882576 -2 7 C-1.58333333 1.58333333 -1.58333333 1.58333333 0 0 Z " fill="#665A5E" transform="translate(52,57)"/>
<path d="M0 0 C0.66 0 1.32 0 2 0 C4.10659067 4.21318133 2.39452679 10.52869644 2 15 C-3.94 14.01 -9.88 13.02 -16 12 C-16.33 12.66 -16.66 13.32 -17 14 C-17.763125 13.7525 -18.52625 13.505 -19.3125 13.25 C-24.03641834 12.92973435 -27.26941444 14.34081593 -31.609375 16.08984375 C-34 17 -34 17 -36 17 C-36.375 14.25 -36.375 14.25 -36 11 C-29.24364563 5.44477529 -22.36930808 5.40326058 -13.9921875 5.79443359 C-9.08680037 6.30060222 -4.52013475 8.11450618 0 10 C0 6.7 0 3.4 0 0 Z " fill="#574F52" transform="translate(37,9)"/>
<path d="M0 0 C3 1 3 1 4 3 C4.04022391 5.3329866 4.04320247 7.66706666 4 10 C7.465 9.505 7.465 9.505 11 9 C10.61402985 11.79828356 10.19863427 12.8205884 8.0625 14.75 C6 16 6 16 4 16 C3.855625 16.928125 3.71125 17.85625 3.5625 18.8125 C3 22 3 22 2 25 C0.68 24.67 -0.64 24.34 -2 24 C-2.33 22.35 -2.66 20.7 -3 19 C-3.66 19 -4.32 19 -5 19 C-7.1875 17.4375 -7.1875 17.4375 -9 15 C-8.91864478 10.44410746 -8.25961689 7.25961689 -5 4 C-3.68252676 3.30251417 -2.35085807 2.63040043 -1 2 C-0.67 1.34 -0.34 0.68 0 0 Z " fill="#8189AD" transform="translate(82,60)"/>
<path d="M0 0 C1.93166016 0.01740234 1.93166016 0.01740234 3.90234375 0.03515625 C5.19269531 0.04417969 6.48304687 0.05320313 7.8125 0.0625 C8.81152344 0.07410156 9.81054688 0.08570313 10.83984375 0.09765625 C11.16984375 1.08765625 11.49984375 2.07765625 11.83984375 3.09765625 C10.84984375 4.58265625 10.84984375 4.58265625 9.83984375 6.09765625 C9.17984375 6.09765625 8.51984375 6.09765625 7.83984375 6.09765625 C7.50984375 8.40765625 7.17984375 10.71765625 6.83984375 13.09765625 C7.82984375 13.42765625 8.81984375 13.75765625 9.83984375 14.09765625 C9.50984375 14.42765625 9.17984375 14.75765625 8.83984375 15.09765625 C9.49984375 15.42765625 10.15984375 15.75765625 10.83984375 16.09765625 C10.83984375 16.75765625 10.83984375 17.41765625 10.83984375 18.09765625 C9.87046875 18.07703125 8.90109375 18.05640625 7.90234375 18.03515625 C4.9651848 17.74147126 4.9651848 17.74147126 3.83984375 19.09765625 C1.16925524 19.23880786 -1.48447863 19.14012732 -4.16015625 19.09765625 C-4.18699612 16.11843032 -4.20691662 13.1394433 -4.22265625 10.16015625 C-4.23103516 9.31001953 -4.23941406 8.45988281 -4.24804688 7.58398438 C-4.25126953 6.77509766 -4.25449219 5.96621094 -4.2578125 5.1328125 C-4.26304932 4.38394775 -4.26828613 3.63508301 -4.27368164 2.86352539 C-4.06953603 -0.31192666 -3.23150136 0.09986098 0 0 Z " fill="#8396C4" transform="translate(37.16015625,40.90234375)"/>
<path d="M0 0 C0.66 2.31 1.32 4.62 2 7 C0.35 7.33 -1.3 7.66 -3 8 C-3 8.66 -3 9.32 -3 10 C-2.34 10.33 -1.68 10.66 -1 11 C-2.98 11 -4.96 11 -7 11 C-6.67 11.99 -6.34 12.98 -6 14 C-6.66 14.66 -7.32 15.32 -8 16 C-8.6425235 18.06874034 -8.6425235 18.06874034 -9 20 C-13.37934119 19.48041715 -17.68803391 18.94324258 -22 18 C-20.66138062 12.05058051 -17.56369516 7.91411811 -13 4 C-8.79898369 1.72126691 -4.81221701 0 0 0 Z " fill="#5D5356" transform="translate(25,29)"/>
<path d="M0 0 C0.99 0.99 1.98 1.98 3 3 C2.67 3.66 2.34 4.32 2 5 C3.98 4.67 5.96 4.34 8 4 C8 4.66 8 5.32 8 6 C9.03898437 5.7834375 10.07796875 5.566875 11.1484375 5.34375 C18.83126227 3.79262307 26.1178857 2.48842047 34 3 C34 4.98 34 6.96 34 9 C32.81664062 9.10957031 31.63328125 9.21914063 30.4140625 9.33203125 C16.81465137 10.54451544 16.81465137 10.54451544 4 15 C2.68388323 14.04663979 1.37221039 13.08714226 0.0625 12.125 C-0.66839844 11.59132813 -1.39929688 11.05765625 -2.15234375 10.5078125 C-4 9 -4 9 -5 7 C-3.68 6.67 -2.36 6.34 -1 6 C-0.67 4.02 -0.34 2.04 0 0 Z " fill="#453D3D" transform="translate(81,35)"/>
<path d="M0 0 C3.02723859 1.51361929 3.3317123 3.84767178 4.5625 6.9375 C6.17196819 11.01793316 6.17196819 11.01793316 8 15 C7.69496569 17.00451121 7.35919321 19.00448218 7 21 C7 22.32 7 23.64 7 25 C1.52173913 25.36521739 1.52173913 25.36521739 -0.875 23.6875 C-2 22 -2 22 -2 19 C-2.886875 18.773125 -3.77375 18.54625 -4.6875 18.3125 C-8.4641247 16.81610154 -10.38617976 15.07508263 -13 12 C-13 11.34 -13 10.68 -13 10 C-11.3745692 10.14095064 -9.74965949 10.28792087 -8.125 10.4375 C-7.22007813 10.51871094 -6.31515625 10.59992187 -5.3828125 10.68359375 C-3 11 -3 11 -1 12 C-0.67 8.04 -0.34 4.08 0 0 Z " fill="#9C5D7F" transform="translate(40,12)"/>
<path d="M0 0 C1.98 0.99 3.96 1.98 6 3 C6.33 2.34 6.66 1.68 7 1 C8.98 1.66 10.96 2.32 13 3 C13.33 2.34 13.66 1.68 14 1 C14.79851065 3.5951596 14.97491111 5.3073389 14.75 8.0625 C14.87375 9.5165625 14.87375 9.5165625 15 11 C17.39056942 12.9354148 17.39056942 12.9354148 20 14 C19.01 14.33 18.02 14.66 17 15 C17 16.32 17 17.64 17 19 C11.41048487 17.75788553 4.32087381 15.87158963 0.6171875 11.2890625 C-0.8860241 7.9469707 -1.42657512 4.62588852 -1 1 C-0.67 0.67 -0.34 0.34 0 0 Z " fill="#747EA6" transform="translate(59,72)"/>
<path d="M0 0 C1.299375 0.433125 1.299375 0.433125 2.625 0.875 C8.60394794 2.60802839 14.84289467 3.1972706 21 4 C21.103125 4.639375 21.20625 5.27875 21.3125 5.9375 C21.6528125 6.9584375 21.6528125 6.9584375 22 8 C22.99 8.33 23.98 8.66 25 9 C25 9.66 25 10.32 25 11 C23.25531628 11.70088156 21.50398839 12.38524009 19.75 13.0625 C18.77546875 13.44535156 17.8009375 13.82820313 16.796875 14.22265625 C13.95992605 15.01113787 12.70590448 15.02437812 10 14 C10.56371414 10.73045798 11.49962266 9.17424117 14 7 C13.01 6.34 12.02 5.68 11 5 C8.93105065 6.99760627 7.0814519 8.88270926 5.4375 11.25 C4.963125 11.8275 4.48875 12.405 4 13 C3.01 13 2.02 13 1 13 C-0.32229189 10.35541621 -0.09677194 8.32238699 -0.0625 5.375 C-0.05347656 4.37210937 -0.04445313 3.36921875 -0.03515625 2.3359375 C-0.02355469 1.56507812 -0.01195313 0.79421875 0 0 Z " fill="#4B3439" transform="translate(17,62)"/>
<path d="M0 0 C0 2.97 0 5.94 0 9 C-1.14339844 9.12117188 -2.28679687 9.24234375 -3.46484375 9.3671875 C-4.95578417 9.53597321 -6.44666673 9.70527047 -7.9375 9.875 C-8.69224609 9.95363281 -9.44699219 10.03226563 -10.22460938 10.11328125 C-12.15919299 10.33883808 -14.08176019 10.66258974 -16 11 C-16.33 11.66 -16.66 12.32 -17 13 C-23.23076923 16 -23.23076923 16 -27 16 C-27 13 -27 13 -25.35546875 11.31640625 C-24.64003906 10.73761719 -23.92460938 10.15882812 -23.1875 9.5625 C-20.07293972 7.03219565 -20.07293972 7.03219565 -17.6796875 3.85546875 C-15.13300403 1.04227189 -12.63232515 1.16265886 -8.9375 0.75 C-7.68839844 0.60046875 -6.43929687 0.4509375 -5.15234375 0.296875 C-2 0 -2 0 0 0 Z " fill="#EFEDED" transform="translate(115,15)"/>
<path d="M0 0 C0 5.28 0 10.56 0 16 C4.37934119 15.48041715 8.68803391 14.94324258 13 14 C13 15.32 13 16.64 13 18 C11.02 18.99 9.04 19.98 7 21 C9.31 21.66 11.62 22.32 14 23 C12.35 24.65 10.7 26.3 9 28 C7.68 27.34 6.36 26.68 5 26 C5 24.68 5 23.36 5 22 C4.01 22 3.02 22 2 22 C0.6273318 20.02678947 -0.70427617 18.02456848 -2 16 C-2.99 15.34 -3.98 14.68 -5 14 C-6.76345561 7.38704148 -6.76345561 7.38704148 -4.9765625 4.140625 C-1.56547619 0 -1.56547619 0 0 0 Z " fill="#49486C" transform="translate(33,44)"/>
<path d="M0 0 C2.31 0 4.62 0 7 0 C7.061875 0.5775 7.12375 1.155 7.1875 1.75 C8.3403886 4.94261458 10.2525228 6.08315544 13 8 C13.7425 8.309375 14.485 8.61875 15.25 8.9375 C17 10 17 10 17.75 12.625 C17.87375 13.800625 17.87375 13.800625 18 15 C16.02 16.32 14.04 17.64 12 19 C10.65499045 17.93119777 9.32428562 16.84437492 8 15.75 C7.2575 15.14671875 6.515 14.5434375 5.75 13.921875 C4 12 4 12 4 8 C3.01 7.67 2.02 7.34 1 7 C0.67 4.69 0.34 2.38 0 0 Z " fill="#8F5975" transform="translate(21,21)"/>
<path d="M0 0 C0 2.31 0 4.62 0 7 C-8.6540033 8.31858334 -17.26609735 9.39214597 -26 10 C-18.91690529 1.7363895 -10.69891819 -0.91530669 0 0 Z " fill="#E7E3E4" transform="translate(115,31)"/>
<path d="M0 0 C0.66 0.33 1.32 0.66 2 1 C2.08694042 5.10403363 2.14037149 9.20783129 2.1875 13.3125 C2.22520508 15.06336914 2.22520508 15.06336914 2.26367188 16.84960938 C2.27817383 18.52700195 2.27817383 18.52700195 2.29296875 20.23828125 C2.31653442 21.7857605 2.31653442 21.7857605 2.34057617 23.36450195 C2 26 2 26 -1 29 C-0.67 25.04 -0.34 21.08 0 17 C-2.31 16.67 -4.62 16.34 -7 16 C-7 17.98 -7 19.96 -7 22 C-7.66 22 -8.32 22 -9 22 C-9.33 19.69 -9.66 17.38 -10 15 C-9.01 15 -8.02 15 -7 15 C-6.9175 13.88625 -6.835 12.7725 -6.75 11.625 C-6.5025 10.42875 -6.255 9.2325 -6 8 C-4.0625 6.9375 -4.0625 6.9375 -2 6 C-0.70768358 2.95800528 -0.70768358 2.95800528 0 0 Z " fill="#666D84" transform="translate(94,78)"/>
<path d="M0 0 C4.74451417 5.85156747 8 13.45273182 8 21 C4.7 21 1.4 21 -2 21 C-2.33 18.03 -2.66 15.06 -3 12 C-2.01 11.67 -1.02 11.34 0 11 C-0.433125 9.9171875 -0.433125 9.9171875 -0.875 8.8125 C-1.91666667 6.20833333 -2.95833333 3.60416667 -4 1 C-2 0 -2 0 0 0 Z " fill="#5D585E" transform="translate(88,49)"/>
<path d="M0 0 C2.3125 1.375 2.3125 1.375 4 3 C3.34 5.31 2.68 7.62 2 10 C0.35 10.33 -1.3 10.66 -3 11 C-3 11.33 -3 11.66 -3 12 C-3.32550502 13.66821323 -3.65846063 15.33499557 -4 17 C-7.465 15.02 -7.465 15.02 -11 13 C-10.33333333 10.33333333 -9.66666667 7.66666667 -9 5 C-7.68 4.67 -6.36 4.34 -5 4 C-5 3.34 -5 2.68 -5 2 C-2.75 0.8125 -2.75 0.8125 0 0 Z " fill="#996C84" transform="translate(27,35)"/>
<path d="M0 0 C2.64 0 5.28 0 8 0 C8.99 4.95 9.98 9.9 11 15 C8.69 15 6.38 15 4 15 C2.24265549 10.02638346 0.67415387 5.2584002 0 0 Z " fill="#835A7A" transform="translate(77,100)"/>
<path d="M0 0 C2.475 0.99 2.475 0.99 5 2 C4.01 3.1446875 4.01 3.1446875 3 4.3125 C0.70149462 6.84277939 0.70149462 6.84277939 1 10 C3.76276177 9.47731534 6.3260876 8.89130413 9 8 C8.8125 9.875 8.8125 9.875 8 12 C4.35849756 14.20697118 1.04916054 14.12071479 -3.0625 14.00390625 C-5.46703765 13.99905839 -7.67251969 14.41812992 -10 15 C-9.75 12.125 -9.75 12.125 -9 9 C-7.125 7.9375 -7.125 7.9375 -5 7 C-3.97695052 5.34738161 -2.97383946 3.68208635 -2 2 C-1.34 2 -0.68 2 0 2 C0 1.34 0 0.68 0 0 Z " fill="#F0EDF0" transform="translate(27,66)"/>
<path d="M0 0 C0.66 0.33 1.32 0.66 2 1 C1.26674085 2.73315799 0.53135424 4.46547195 -0.21875 6.19140625 C-0.79053918 7.5150982 -1.33948822 8.84872056 -1.875 10.1875 C-3.45845388 12.73862015 -5.60398602 14.23451602 -8 16 C-9.51462522 14.78890086 -11.01132562 13.55535932 -12.5 12.3125 C-13.3353125 11.62800781 -14.170625 10.94351563 -15.03125 10.23828125 C-17 8 -17 8 -17.28125 5.23046875 C-17.1884375 4.49441406 -17.095625 3.75835938 -17 3 C-12.89041233 4.45044271 -9.56741255 6.51110752 -6 9 C-5.73445313 8.43410156 -5.46890625 7.86820313 -5.1953125 7.28515625 C-4.84210938 6.55167969 -4.48890625 5.81820313 -4.125 5.0625 C-3.77695313 4.33160156 -3.42890625 3.60070312 -3.0703125 2.84765625 C-2 1 -2 1 0 0 Z " fill="#F2EBEF" transform="translate(78,26)"/>
<path d="M0 0 C1.32 0 2.64 0 4 0 C3.54636829 1.58468677 3.08688548 3.16769924 2.625 4.75 C2.36976562 5.63171875 2.11453125 6.5134375 1.8515625 7.421875 C0.47198061 11.59859081 -0.26005099 13.50670066 -4 16 C-6.6875 15.625 -6.6875 15.625 -9 15 C-7.98142235 6.78113208 -7.98142235 6.78113208 -3.9375 3.5625 C-2.968125 3.046875 -1.99875 2.53125 -1 2 C-0.67 1.34 -0.34 0.68 0 0 Z " fill="#524C5C" transform="translate(93,70)"/>
<path d="M0 0 C1.890625 0.21484375 1.890625 0.21484375 4 1 C5.046875 3.06640625 5.046875 3.06640625 5.75 5.5625 C5.99234375 6.38878906 6.2346875 7.21507812 6.484375 8.06640625 C6.65453125 8.70449219 6.8246875 9.34257812 7 10 C11.7539867 8.85248597 16.37892907 7.61737483 21 6 C20.67 7.65 20.34 9.3 20 11 C18.576875 11.4021875 18.576875 11.4021875 17.125 11.8125 C13.74732727 12.74986588 13.74732727 12.74986588 12 16 C9.75 15.875 9.75 15.875 7 15 C3.20864743 10.53958521 1.62010611 5.52308901 0 0 Z " fill="#EFE3EB" transform="translate(41,12)"/>
<path d="M0 0 C0 1.98 0 3.96 0 6 C-7.92 6.495 -7.92 6.495 -16 7 C-16 6.34 -16 5.68 -16 5 C-17.32 4.67 -18.64 4.34 -20 4 C-20 3.34 -20 2.68 -20 2 C-13.23514355 0.3879491 -6.95041086 -0.26618595 0 0 Z " fill="#6A6768" transform="translate(115,38)"/>
<path d="M0 0 C0.66 0 1.32 0 2 0 C4.10659067 4.21318133 2.39452679 10.52869644 2 15 C-6.415 13.515 -6.415 13.515 -15 12 C-14.01 10.35 -13.02 8.7 -12 7 C-7.80530429 7.59924224 -3.99000166 8.57499941 0 10 C0 6.7 0 3.4 0 0 Z " fill="#564850" transform="translate(37,9)"/>
<path d="M0 0 C0.66 0 1.32 0 2 0 C6.41964286 6.42857143 6.41964286 6.42857143 5.6875 11 C5.55859375 11.66 5.4296875 12.32 5.296875 13 C4.83001409 16.14516822 5.41719244 18.89169301 6 22 C4.0625 21.6875 4.0625 21.6875 2 21 C0.64984141 16.94952424 1.37915002 14.2079832 2 10 C-0.31 10 -2.62 10 -5 10 C-4.360625 9.0925 -3.72125 8.185 -3.0625 7.25 C-1.38571047 4.60778619 -0.46310002 3.0101501 0 0 Z " fill="#EFEBEF" transform="translate(48,62)"/>
<path d="M0 0 C11.13207547 1.13207547 11.13207547 1.13207547 15 5 C14.875 8.5 14.875 8.5 14 12 C12.0625 13.5 12.0625 13.5 10 14 C9.34 13.67 8.68 13.34 8 13 C7.3671875 10.71484375 7.3671875 10.71484375 6.875 7.9375 C6.70742187 7.01839844 6.53984375 6.09929688 6.3671875 5.15234375 C6.24601563 4.44207031 6.12484375 3.73179688 6 3 C5.01 3 4.02 3 3 3 C3 2.34 3 1.68 3 1 C2.01 0.67 1.02 0.34 0 0 Z " fill="#E7DEE6" transform="translate(4,47)"/>
<path d="M0 0 C0.99 0.33 1.98 0.66 3 1 C1.3396226 8.05660395 -1.77712544 11.96365668 -7 17 C-7.66 16.01 -8.32 15.02 -9 14 C-11.05003955 12.80767387 -11.05003955 12.80767387 -13 12 C-13 11.34 -13 10.68 -13 10 C-12.07767578 9.77957031 -12.07767578 9.77957031 -11.13671875 9.5546875 C-5.63358192 8.09908038 -5.63358192 8.09908038 -2 3.875 C-1.67 2.92625 -1.34 1.9775 -1 1 C-0.67 0.67 -0.34 0.34 0 0 Z " fill="#4D2C3B" transform="translate(73,39)"/>
<path d="M0 0 C3.96 0 7.92 0 12 0 C9.94896645 4.1020671 8.47633551 5.50040118 4.9375 8.25 C4.03902344 8.95640625 3.14054687 9.6628125 2.21484375 10.390625 C0 12 0 12 -1 12 C-0.67 8.04 -0.34 4.08 0 0 Z " fill="#F1F0F0" transform="translate(83,10)"/>
<path d="M0 0 C1.32 0 2.64 0 4 0 C4.103125 0.639375 4.20625 1.27875 4.3125 1.9375 C4.6528125 2.9584375 4.6528125 2.9584375 5 4 C5.99 4.33 6.98 4.66 8 5 C8 5.66 8 6.32 8 7 C6.25531628 7.70088156 4.50398839 8.38524009 2.75 9.0625 C1.77546875 9.44535156 0.8009375 9.82820313 -0.203125 10.22265625 C-3.04007395 11.01113787 -4.29409552 11.02437812 -7 10 C-6.45912682 6.21388773 -4.88277668 4.44599233 -2 2 C-1.34 2 -0.68 2 0 2 C0 1.34 0 0.68 0 0 Z " fill="#3B343E" transform="translate(34,66)"/>
<path d="M0 0 C0.99 0.33 1.98 0.66 3 1 C3.5625 2.9375 3.5625 2.9375 4 5 C4.66 5.66 5.32 6.32 6 7 C4.88625 7.2475 3.7725 7.495 2.625 7.75 C-1.04615198 8.61005339 -1.04615198 8.61005339 -2.4375 11.125 C-2.623125 11.74375 -2.80875 12.3625 -3 13 C-3.66 13 -4.32 13 -5 13 C-5.33 14.65 -5.66 16.3 -6 18 C-12.75 17.25 -12.75 17.25 -15 15 C-14.44570313 14.82984375 -13.89140625 14.6596875 -13.3203125 14.484375 C-8.78649614 13.13344976 -8.78649614 13.13344976 -5.625 9.875 C-5.41875 9.25625 -5.2125 8.6375 -5 8 C-4.34 7.67 -3.68 7.34 -3 7 C-0.93730124 3.68213157 -0.93730124 3.68213157 0 0 Z " fill="#3C343D" transform="translate(53,49)"/>
<path d="M0 0 C1.24546405 2.49092811 0.7767578 3.41080733 0 6 C0.99 6.33 1.98 6.66 3 7 C2.67 7.33 2.34 7.66 2 8 C2.66 8.33 3.32 8.66 4 9 C4 9.66 4 10.32 4 11 C3.030625 10.979375 2.06125 10.95875 1.0625 10.9375 C-1.87465895 10.64381501 -1.87465895 10.64381501 -3 12 C-5.67058851 12.14115161 -8.32432238 12.04247107 -11 12 C-11 9.36 -11 6.72 -11 4 C-10.34 4.66 -9.68 5.32 -9 6 C-6.58655333 6.66743877 -6.58655333 6.66743877 -4 6 C-1.64677204 3.09587454 -1.64677204 3.09587454 0 0 Z " fill="#7984AC" transform="translate(44,48)"/>
<path d="M0 0 C0.33 0.33 0.66 0.66 1 1 C0.91036938 2.69141656 0.75422324 4.37959602 0.5625 6.0625 C0.46066406 6.98160156 0.35882813 7.90070312 0.25390625 8.84765625 C0.17011719 9.55792969 0.08632813 10.26820312 0 11 C-3 12 -3 12 -5.6875 10.9375 C-8 9 -8 9 -8.5 6 C-8 3 -8 3 -6.8125 1.125 C-4.41409825 -0.36366316 -2.77193929 -0.29178308 0 0 Z " fill="#8B6E7F" transform="translate(61,23)"/>
<path d="M0 0 C2.99220268 1.36370299 5.29026529 2.94908083 7.75 5.125 C8.67039062 5.93324219 8.67039062 5.93324219 9.609375 6.7578125 C10.06828125 7.16773438 10.5271875 7.57765625 11 8 C10.67 8.66 10.34 9.32 10 10 C8.02043559 9.85966889 6.04134859 9.7125877 4.0625 9.5625 C2.96035156 9.48128906 1.85820313 9.40007813 0.72265625 9.31640625 C-2 9 -2 9 -3 8 C-3.25 5.625 -3.25 5.625 -3 3 C-1.5 1.1875 -1.5 1.1875 0 0 Z " fill="#6B515D" transform="translate(60,34)"/>
<path d="M0 0 C0.71929687 0.29003906 1.43859375 0.58007812 2.1796875 0.87890625 C2.90414062 1.16636719 3.62859375 1.45382813 4.375 1.75 C4.92929688 1.97816406 5.48359375 2.20632812 6.0546875 2.44140625 C6.3846875 4.75140625 6.7146875 7.06140625 7.0546875 9.44140625 C4.4146875 9.44140625 1.7746875 9.44140625 -0.9453125 9.44140625 C-1.9353125 6.47140625 -2.9253125 3.50140625 -3.9453125 0.44140625 C-1.9453125 -0.55859375 -1.9453125 -0.55859375 0 0 Z " fill="#613C57" transform="translate(77.9453125,90.55859375)"/>
<path d="M0 0 C2.97 0 5.94 0 9 0 C9 2.97 9 5.94 9 9 C5.37 8.67 1.74 8.34 -2 8 C-1.34 7.67 -0.68 7.34 0 7 C0 4.69 0 2.38 0 0 Z " fill="#EFEEEE" transform="translate(106,1)"/>
<path d="M0 0 C2.475 0.99 2.475 0.99 5 2 C5.06058594 2.60328125 5.12117188 3.2065625 5.18359375 3.828125 C5.26738281 4.62734375 5.35117187 5.4265625 5.4375 6.25 C5.55931641 7.43335937 5.55931641 7.43335937 5.68359375 8.640625 C5.97634993 10.82364639 6.42064419 12.8773182 7 15 C5.35 15 3.7 15 2 15 C-2.0633856 7.97191247 -2.0633856 7.97191247 -1.8125 4.125 C-1 2 -1 2 0 0 Z " fill="#645269" transform="translate(54,70)"/>
<path d="M0 0 C-1.38238352 3.10009769 -2.98578859 5.28263873 -5.375 7.6875 C-5.96023437 8.28949219 -6.54546875 8.89148438 -7.1484375 9.51171875 C-9.12608914 11.10135013 -10.5214179 11.5905426 -13 12 C-13.33 11.01 -13.66 10.02 -14 9 C-12.92578125 7.24609375 -12.92578125 7.24609375 -11.3125 5.4375 C-10.79300781 4.83808594 -10.27351563 4.23867188 -9.73828125 3.62109375 C-6.47037746 0.57349808 -4.51985754 0 0 0 Z " fill="#544E4E" transform="translate(99,17)"/>
<path d="M0 0 C2.4375 1 2.4375 1 4 2 C4 2.66 4 3.32 4 4 C0.04 4.99 -3.92 5.98 -8 7 C-8.99 5.68 -9.98 4.36 -11 3 C-7.4820167 -0.37726396 -4.75972022 -0.42497502 0 0 Z " fill="#5C5856" transform="translate(95,41)"/>
<path d="M0 0 C0 1.65 0 3.3 0 5 C-0.99 5 -1.98 5 -3 5 C-2.484375 5.7425 -1.96875 6.485 -1.4375 7.25 C0 10 0 10 -0.3125 12.3125 C-0.539375 12.869375 -0.76625 13.42625 -1 14 C-2.65 14 -4.3 14 -6 14 C-5.67 13.34 -5.34 12.68 -5 12 C-5.66 11.67 -6.32 11.34 -7 11 C-6.51098901 4.64285714 -6.51098901 4.64285714 -4.0625 1.5625 C-2 0 -2 0 0 0 Z " fill="#484663" transform="translate(51,43)"/>
<path d="M0 0 C0 1.32 0 2.64 0 4 C-5.94 4.33 -11.88 4.66 -18 5 C-17.34 3.68 -16.68 2.36 -16 1 C-10.7431052 -0.28740281 -5.38273611 -0.10985176 0 0 Z " fill="#6D6A6A" transform="translate(115,24)"/>
<path d="M0 0 C1.64630328 0.14042877 3.29204179 0.28749329 4.9375 0.4375 C6.31228516 0.55931641 6.31228516 0.55931641 7.71484375 0.68359375 C10 1 10 1 11 2 C11.04080783 3.99958364 11.04254356 6.00045254 11 8 C6.97454466 7.71915428 5.25517374 7.21634296 2.125 4.5625 C0 2 0 2 0 0 Z " fill="#EFDDEA" transform="translate(27,22)"/>
<path d="M0 0 C1.39195915 4.17587745 -0.17676781 6.13474776 -2 10 C-4.9375 9.625 -4.9375 9.625 -8 9 C-8.33 8.34 -8.66 7.68 -9 7 C-6.34345343 3.26115668 -4.41889613 1.35021826 0 0 Z " fill="#3C2E45" transform="translate(74,65)"/>
<path d="M0 0 C1.98 0.66 3.96 1.32 6 2 C6 5.61537605 5.10770759 7.11165997 3 10 C2.01 10 1.02 10 0 10 C-2 7 -2 7 -1.6875 4.4375 C-1 2 -1 2 0 0 Z " fill="#99587C" transform="translate(52,32)"/>
<path d="M0 0 C5.28 0 10.56 0 16 0 C16 0.99 16 1.98 16 3 C14.91332031 3.09087891 14.91332031 3.09087891 13.8046875 3.18359375 C8.82883467 3.61483433 3.91319609 4.07047641 -1 5 C-0.67 3.35 -0.34 1.7 0 0 Z " fill="#4B4646" transform="translate(99,28)"/>
<path d="M0 0 C2.31 0.33 4.62 0.66 7 1 C5.84414715 4.91211733 4.64465038 7.8745041 2 11 C1.34 10.67 0.68 10.34 0 10 C-1.29411765 2.58823529 -1.29411765 2.58823529 0 0 Z " fill="#5E324A" transform="translate(47,27)"/>
<path d="M0 0 C0.33 0.99 0.66 1.98 1 3 C-0.65 3.33 -2.3 3.66 -4 4 C-4 4.66 -4 5.32 -4 6 C-3.34 6.33 -2.68 6.66 -2 7 C-4.64 7 -7.28 7 -10 7 C-10.33 6.01 -10.66 5.02 -11 4 C-7.26280719 0.48264206 -5.13496308 -0.47767098 0 0 Z " fill="#54474C" transform="translate(26,33)"/>
<path d="M0 0 C2.31 0 4.62 0 7 0 C7.68707555 2.49064888 8 4.37886292 8 7 C6.02 7.33 4.04 7.66 2 8 C0.23537317 4.91190305 0 3.76687864 0 0 Z " fill="#937183" transform="translate(21,21)"/>
<path d="M0 0 C2.9512645 1.47563225 3.06923915 3.50079352 4.125 6.5625 C4.47820313 7.57441406 4.83140625 8.58632813 5.1953125 9.62890625 C5.46085937 10.41136719 5.72640625 11.19382812 6 12 C1.25 13.125 1.25 13.125 -1 12 C-0.67 8.04 -0.34 4.08 0 0 Z " fill="#967686" transform="translate(40,12)"/>
<path d="M0 0 C0.61488281 0.44859375 1.22976562 0.8971875 1.86328125 1.359375 C2.48589844 1.79765625 3.10851563 2.2359375 3.75 2.6875 C4.22050781 3.15671875 4.69101563 3.6259375 5.17578125 4.109375 C5.17578125 5.099375 5.17578125 6.089375 5.17578125 7.109375 C2.17578125 8.109375 2.17578125 8.109375 0.3515625 7.33203125 C-1.37369792 6.2578125 -3.09895833 5.18359375 -4.82421875 4.109375 C-4.82421875 2.789375 -4.82421875 1.469375 -4.82421875 0.109375 C-1.82421875 -0.890625 -1.82421875 -0.890625 0 0 Z " fill="#623F51" transform="translate(60.82421875,49.890625)"/>
<path d="M0 0 C2.6875 0.3125 2.6875 0.3125 5 1 C4.67 3.31 4.34 5.62 4 8 C2.35 8.33 0.7 8.66 -1 9 C-1.66 7.02 -2.32 5.04 -3 3 C-1.8125 1.4375 -1.8125 1.4375 0 0 Z " fill="#585451" transform="translate(77,33)"/>
<path d="M0 0 C2.31 0.66 4.62 1.32 7 2 C7 3.32 7 4.64 7 6 C2.92857143 9 2.92857143 9 0 9 C0 6.03 0 3.06 0 0 Z " fill="#594852" transform="translate(17,62)"/>
<path d="M0 0 C5.75 0.875 5.75 0.875 8 2 C8 3.32 8 4.64 8 6 C4.37 5.67 0.74 5.34 -3 5 C-2.01 3.35 -1.02 1.7 0 0 Z " fill="#464144" transform="translate(25,16)"/>
<path d="M0 0 C0.66 0 1.32 0 2 0 C6.77676538 9.22551253 6.77676538 9.22551253 5 15 C4.34 15 3.68 15 3 15 C2.49564306 13.0636296 1.99666126 11.12585854 1.5 9.1875 C1.2215625 8.10855469 0.943125 7.02960938 0.65625 5.91796875 C0 3 0 3 0 0 Z " fill="#897DA0" transform="translate(85,100)"/>
<path d="M0 0 C2.475 0.99 2.475 0.99 5 2 C3.53480226 4.54140493 2.04775301 6.88875077 0 9 C-3.3125 9.4375 -3.3125 9.4375 -6 9 C-4.68 6.69 -3.36 4.38 -2 2 C-1.34 2 -0.68 2 0 2 C0 1.34 0 0.68 0 0 Z " fill="#B3949E" transform="translate(27,66)"/>
<path d="M0 0 C1.27875 -0.061875 2.5575 -0.12375 3.875 -0.1875 C4.95394531 -0.23970703 4.95394531 -0.23970703 6.0546875 -0.29296875 C6.69664063 -0.19628906 7.33859375 -0.09960938 8 0 C8.66 0.99 9.32 1.98 10 3 C8.9375 4.5 8.9375 4.5 7 6 C3.3125 6.1875 3.3125 6.1875 0 6 C0 4.02 0 2.04 0 0 Z " fill="#8D5A75" transform="translate(38,24)"/>
<path d="M0 0 C2.31 0.66 4.62 1.32 7 2 C7.33 1.34 7.66 0.68 8 0 C9.10844919 3.32534757 8.84454356 5.62182575 8 9 C7.52949219 8.66226563 7.05898437 8.32453125 6.57421875 7.9765625 C5.95160156 7.53054687 5.32898438 7.08453125 4.6875 6.625 C4.07261719 6.18414062 3.45773438 5.74328125 2.82421875 5.2890625 C1.2347608 4.16589093 -0.38062171 3.07958553 -2 2 C-1.34 2 -0.68 2 0 2 C0 1.34 0 0.68 0 0 Z " fill="#787396" transform="translate(65,73)"/>
<path d="M0 0 C-0.52268466 2.76276177 -1.10869587 5.3260876 -2 8 C-5.875 7.125 -5.875 7.125 -7 6 C-7.04063832 4.33382885 -7.042721 2.66611905 -7 1 C-4.50935112 0.31292445 -2.62113708 0 0 0 Z " fill="#B69AA8" transform="translate(86,77)"/>
<path d="M0 0 C0.66 0 1.32 0 2 0 C1.59992325 5.46771564 -0.46144592 8.95935379 -4 13 C-4.33 13 -4.66 13 -5 13 C-5.63175608 7.81960013 -4.25817319 5.33121642 -1.2890625 1.3203125 C-0.86367188 0.88460937 -0.43828125 0.44890625 0 0 Z " fill="#65687B" transform="translate(62,98)"/>
<path d="M0 0 C4.455 0.99 4.455 0.99 9 2 C7.35 3.65 5.7 5.3 4 7 C2.68 6.34 1.36 5.68 0 5 C0 3.35 0 1.7 0 0 Z " fill="#58545D" transform="translate(38,65)"/>
<path d="M0 0 C2.875 -0.125 2.875 -0.125 6 0 C6.66 0.66 7.32 1.32 8 2 C7.625 4.625 7.625 4.625 7 7 C3.535 5.02 3.535 5.02 0 3 C0 2.01 0 1.02 0 0 Z " fill="#E8D5E3" transform="translate(16,45)"/>
<path d="M0 0 C2.31 0 4.62 0 7 0 C7 1.65 7 3.3 7 5 C6.01 5.33 5.02 5.66 4 6 C1.3125 4.5625 1.3125 4.5625 -1 3 C-0.67 2.01 -0.34 1.02 0 0 Z " fill="#9E6A86" transform="translate(54,29)"/>
<path d="M0 0 C1.32 0.66 2.64 1.32 4 2 C0.25 8.875 0.25 8.875 -2 10 C-3.06351675 6.61608307 -3.21442982 5.4195366 -1.5625 2.1875 C-1.046875 1.465625 -0.53125 0.74375 0 0 Z " fill="#7D8BAC" transform="translate(59,95)"/>
<path d="M0 0 C-0.50712033 3.71888239 -1.11608215 6.73454239 -3 10 C-3.99 9.67 -4.98 9.34 -6 9 C-5.38983051 3.50847458 -5.38983051 3.50847458 -3.5625 1.125 C-2 0 -2 0 0 0 Z " fill="#2C2D3A" transform="translate(95,74)"/>
<path d="M0 0 C0.99 0.33 1.98 0.66 3 1 C1.375 7.75 1.375 7.75 -2 10 C-2.66 9.01 -3.32 8.02 -4 7 C-1.125 1.125 -1.125 1.125 0 0 Z " fill="#503D44" transform="translate(73,39)"/>
<path d="M0 0 C0.99 0.33 1.98 0.66 3 1 C3.5625 2.9375 3.5625 2.9375 4 5 C4.66 5.66 5.32 6.32 6 7 C3.36 7.33 0.72 7.66 -2 8 C-1.47731534 5.23723823 -0.89130413 2.6739124 0 0 Z " fill="#3D263F" transform="translate(53,49)"/>
<path d="M0 0 C2.31 0 4.62 0 7 0 C7 0.66 7 1.32 7 2 C8.65 2.33 10.3 2.66 12 3 C12 3.33 12 3.66 12 4 C9.36 4.33 6.72 4.66 4 5 C4 4.34 4 3.68 4 3 C2.68 2.67 1.36 2.34 0 2 C0 1.34 0 0.68 0 0 Z " fill="#625E5F" transform="translate(95,40)"/>
<path d="M0 0 C0.66 0 1.32 0 2 0 C3.5078125 1.75 3.5078125 1.75 5.125 4 C5.66382812 4.7425 6.20265625 5.485 6.7578125 6.25 C7.16773437 6.8275 7.57765625 7.405 8 8 C5.69 8.33 3.38 8.66 1 9 C0.67 6.03 0.34 3.06 0 0 Z " fill="#5C6380" transform="translate(85,61)"/>
<path d="M0 0 C2.3125 1.375 2.3125 1.375 4 3 C3.67 3.99 3.34 4.98 3 6 C-2.75 5.125 -2.75 5.125 -5 4 C-5 3.34 -5 2.68 -5 2 C-2.75 0.8125 -2.75 0.8125 0 0 Z " fill="#DABED0" transform="translate(27,35)"/>
<path d="M0 0 C0.66 0.33 1.32 0.66 2 1 C-0.46153846 7.64615385 -0.46153846 7.64615385 -3.1875 9.4375 C-4.0846875 9.7159375 -4.0846875 9.7159375 -5 10 C-5 6.26879511 -3.81968524 4.21944311 -2 1 C-1.34 0.67 -0.68 0.34 0 0 Z " fill="#E3E2E1" transform="translate(78,26)"/>
<path d="M0 0 C1.98 0.66 3.96 1.32 6 2 C6 2.66 6 3.32 6 4 C3.03 4.66 0.06 5.32 -3 6 C-1.125 1.125 -1.125 1.125 0 0 Z " fill="#464443" transform="translate(93,41)"/>
<path d="M0 0 C2 1.75 2 1.75 4 4 C4 5.32 4 6.64 4 8 C2.35 8 0.7 8 -1 8 C-1.125 2.25 -1.125 2.25 0 0 Z " fill="#4C3756" transform="translate(74,75)"/>
<path d="M0 0 C1.65 0.33 3.3 0.66 5 1 C4.67 1.99 4.34 2.98 4 4 C0.9375 5.1875 0.9375 5.1875 -2 6 C-2.33 5.34 -2.66 4.68 -3 4 C-2.01 2.68 -1.02 1.36 0 0 Z " fill="#545163" transform="translate(42,58)"/>
<path d="M0 0 C4.875 1.75 4.875 1.75 6 4 C5.01 4 4.02 4 3 4 C3 5.32 3 6.64 3 8 C2.01 8 1.02 8 0 8 C0 5.36 0 2.72 0 0 Z " fill="#736C8A" transform="translate(73,83)"/>
<path d="M0 0 C1.65 0 3.3 0 5 0 C5.33 0.99 5.66 1.98 6 3 C4.02 3.99 4.02 3.99 2 5 C1.34 3.35 0.68 1.7 0 0 Z " fill="#6E647F" transform="translate(48,48)"/>
<path d="M0 0 C2.31 0 4.62 0 7 0 C7 0.99 7 1.98 7 3 C4.625 3.1875 4.625 3.1875 2 3 C1.34 2.01 0.68 1.02 0 0 Z " fill="#4C3747" transform="translate(27,65)"/>
<path d="M0 0 C0.99 0 1.98 0 3 0 C2.67 1.32 2.34 2.64 2 4 C0.35 4 -1.3 4 -3 4 C-1.6875 2 -1.6875 2 0 0 Z " fill="#514A5E" transform="translate(48,53)"/>
<path d="M0 0 C2.0625 0.4375 2.0625 0.4375 4 1 C2.35 2.65 0.7 4.3 -1 6 C-1.042721 4.33388095 -1.04063832 2.66617115 -1 1 C-0.67 0.67 -0.34 0.34 0 0 Z " fill="#7A86AF" transform="translate(34,41)"/>
</svg>
